<?xml version="1.0" encoding="iso-8859-1"?>
<!-- Uploaded to: SVG Repo, www.svgrepo.com, Generator: SVG Repo Mixer Tools -->
<!DOCTYPE svg PUBLIC "-//W3C//DTD SVG 1.1//EN" "http://www.w3.org/Graphics/SVG/1.1/DTD/svg11.dtd">
<svg height="800px" width="800px" version="1.1" id="Capa_1" xmlns="http://www.w3.org/2000/svg" xmlns:xlink="http://www.w3.org/1999/xlink" 
	 viewBox="0 0 58 58" xml:space="preserve">
<g>
	<path style="fill:#1081E0;" d="M20,49c-0.254,0-0.508-0.096-0.704-0.289l-4.042-4c-0.393-0.389-0.396-1.022-0.007-1.415
		c0.389-0.392,1.021-0.396,1.415-0.007l4.042,4c0.393,0.389,0.396,1.022,0.007,1.415C20.515,48.901,20.258,49,20,49z"/>
	<path style="fill:#1081E0;" d="M38.029,49c-0.258,0-0.515-0.099-0.711-0.296c-0.388-0.393-0.385-1.026,0.007-1.415l4.042-4
		c0.394-0.388,1.026-0.384,1.415,0.007c0.388,0.393,0.385,1.026-0.007,1.415l-4.042,4C38.538,48.904,38.284,49,38.029,49z"/>
	<path style="fill:#EBBA16;" d="M53,7H5c-2.722,0-5,2.277-5,5v31c0,2.723,2.278,5,5,5h15l9,10l9-10h15c2.722,0,5-2.277,5-5V12
		C58,9.277,55.722,7,53,7z"/>
	<path style="fill:#ED8A19;" d="M51,7V3.793C51,1.728,49.272,0,47.207,0H10.793C8.728,0,7,1.728,7,3.793V7H51z"/>
</g>
</svg>